<svg width="95" height="95" viewBox="0 0 95 95" fill="none" xmlns="http://www.w3.org/2000/svg">
<g filter="url(#filter0_d_3_17)">
<path d="M19.7917 83.125C17.6146 83.125 15.7509 82.3498 14.2005 80.7995C12.6502 79.2491 11.875 77.3854 11.875 75.2083V19.7917C11.875 17.6146 12.6502 15.7509 14.2005 14.2005C15.7509 12.6502 17.6146 11.875 19.7917 11.875H75.2083C77.3854 11.875 79.2491 12.6502 80.7995 14.2005C82.3498 15.7509 83.125 17.6146 83.125 19.7917V75.2083C83.125 77.3854 82.3498 79.2491 80.7995 80.7995C79.2491 82.3498 77.3854 83.125 75.2083 83.125H19.7917ZM19.7917 75.2083H75.2083V19.7917H19.7917V75.2083ZM23.75 67.2917H71.25L56.4062 47.5L44.5312 63.3333L35.625 51.4583L23.75 67.2917Z" fill="#888787"/>
</g>
<defs>
<filter id="filter0_d_3_17" x="-4" y="0" width="103" height="103" filterUnits="userSpaceOnUse" color-interpolation-filters="sRGB">
<feFlood flood-opacity="0" result="BackgroundImageFix"/>
<feColorMatrix in="SourceAlpha" type="matrix" values="0 0 0 0 0 0 0 0 0 0 0 0 0 0 0 0 0 0 127 0" result="hardAlpha"/>
<feOffset dy="4"/>
<feGaussianBlur stdDeviation="2"/>
<feComposite in2="hardAlpha" operator="out"/>
<feColorMatrix type="matrix" values="0 0 0 0 0 0 0 0 0 0 0 0 0 0 0 0 0 0 0.25 0"/>
<feBlend mode="normal" in2="BackgroundImageFix" result="effect1_dropShadow_3_17"/>
<feBlend mode="normal" in="SourceGraphic" in2="effect1_dropShadow_3_17" result="shape"/>
</filter>
</defs>
</svg>
